:SAMPLES-PER-SECOND 30
:FULLY-SPECIFIED
:DEGREES
130
root  17.5715 21.7699 -2.52601 38.731 -85.0533 0.790283
RightUpLeg  -41.4716 -6.7501 -1.60456
RightLeg  105.295 5.26775 -15.3702
RightFoot  -15.4477 0.643939 20.665
RightToes  -1.33073e-015 0 -3.6325e-017
Spine  50.7167 -5.14094 12.3251
Spine1  -7.35907 1.20356 -1.71215
HEad  -42.7959 -1.68679 -7.17463
LeftShoulder1  8.32948 -20.1088 -29.1377
LeftArm  -9.65573 -74.2904 -30.5876
LeftForeArm  61.2361 -4.19884 -8.7946
LeftHand  -0.244104 0.0205437 5.32207
RightShoulder  6.61758 15.5323 28.7366
RightArm  -11.7735 32.9901 41.3239
RightForeArm  29.515 36.2368 6.4426
RightHand  -32.0284 42.5428 -68.2973
LeftUpLeg  -24.9586 -3.94765 9.48367
LeftLeg  86.1254 -0.041567 6.67481
LeftFoot  -3.66944 0.392946 -5.40641
LeftToes  -7.82198e-011 2.46994e-011 -7.94165e-012
131
root  17.0553 21.8717 -2.61239 29.028 -85.0359 10.9133
RightUpLeg  -39.9873 -6.86952 -2.56591
RightLeg  103.728 4.55304 -14.5865
RightFoot  -16.004 0.805049 22.2272
RightToes  -1.33073e-015 0 -3.6325e-017
Spine  50.5873 -4.78094 10.5753
Spine1  -7.41128 0.699816 -1.99009
HEad  -42.5451 -2.07272 -6.0628
LeftShoulder1  8.13805 -19.901 -28.6265
LeftArm  -7.45559 -73.8657 -33.2785
LeftForeArm  62.1602 -4.35381 -8.78957
LeftHand  -0.244104 0.0205437 5.32207
RightShoulder  6.34212 15.3252 27.6244
RightArm  -13.7578 35.3557 41.0304
RightForeArm  30.817 41.0072 7.73192
RightHand  -30.5476 41.8188 -66.5357
LeftUpLeg  -28.6671 -3.91309 8.61466
LeftLeg  90.3236 -0.541644 6.67109
LeftFoot  -3.86516 0.288679 -4.03551
LeftToes  -7.82198e-011 2.46994e-011 -7.94165e-012
132
root  16.6092 22.014 -2.69454 17.93 -84.9323 21.869
RightUpLeg  -38.3641 -7.01224 -3.62812
RightLeg  102.315 4.0231 -14.1139
RightFoot  -15.7488 0.770777 22.5486
RightToes  -1.33073e-015 0 -3.6325e-017
Spine  50.9843 -4.32344 8.86246
Spine1  -7.60554 0.431178 -2.92126
HEad  -42.3269 -2.87575 -4.87116
LeftShoulder1  8.04579 -20.2051 -27.7655
LeftArm  -4.79459 -73.5599 -36.691
LeftForeArm  63.1455 -3.71621 -8.80742
LeftHand  -0.244104 0.0205437 5.32207
RightShoulder  5.84401 14.7291 25.9416
RightArm  -16.5836 38.7688 39.8902
RightForeArm  31.3184 44.6133 8.87089
RightHand  -28.2665 40.5745 -63.8287
LeftUpLeg  -33.211 -3.50736 7.60434
LeftLeg  96.3661 -1.36556 7.35194
LeftFoot  -6.9655 0.187785 -3.85311
LeftToes  -7.82198e-011 2.46994e-011 -7.94165e-012
133
root  16.2635 22.1248 -2.71311 12.645 -84.7443 26.7811
RightUpLeg  -36.8896 -7.13057 -4.22471
RightLeg  101.202 3.59963 -13.6278
RightFoot  -15.3107 0.66859 22.0674
RightToes  -1.33073e-015 0 -3.6325e-017
Spine  51.5436 -4.14702 7.90157
Spine1  -8.01843 0.292314 -4.41079
HEad  -42.3018 -3.55369 -3.81771
LeftShoulder1  8.03171 -20.6822 -27.0059
LeftArm  -2.50538 -72.9535 -39.5903
LeftForeArm  64.3861 -3.39314 -8.83224
LeftHand  -0.244104 0.0205437 5.32207
RightShoulder  5.29663 13.9899 24.093
RightArm  -20.2189 42.9577 37.7476
RightForeArm  30.7601 46.13 9.45241
RightHand  -26.0747 39.2261 -61.2102
LeftUpLeg  -38.7717 -2.98956 6.88963
LeftLeg  103.351 -2.46773 7.92635
LeftFoot  -10.089 0.103991 -3.94308
LeftToes  -7.82198e-011 2.46994e-011 -7.94165e-012
134
root  15.9573 22.1606 -2.6641 12.8329 -84.958 25.8895
RightUpLeg  -35.1477 -6.95904 -4.45369
RightLeg  100.207 3.25275 -13.2399
RightFoot  -15.336 0.672503 22.0365
RightToes  -1.33073e-015 0 -3.6325e-017
Spine  52.2177 -4.03861 7.41693
Spine1  -8.17827 0.340458 -5.9439
HEad  -42.466 -4.03774 -2.95541
LeftShoulder1  7.98245 -20.9327 -26.4414
LeftArm  -0.646206 -72.2511 -41.9054
LeftForeArm  65.6032 -3.76923 -8.85827
LeftHand  -0.244104 0.0205437 5.32207
RightShoulder  4.74909 13.3213 21.9287
RightArm  -24.7831 47.8351 34.6326
RightForeArm  28.9249 44.8689 9.13616
RightHand  -24.3075 38.0044 -59.0898
LeftUpLeg  -44.4744 -2.29626 6.3863
LeftLeg  110.051 -3.33153 7.47284
LeftFoot  -12.4927 0.035926 -3.87872
LeftToes  -7.82198e-011 2.46994e-011 -7.94165e-012
135
root  15.603 22.1601 -2.56632 18.1067 -86.0988 19.3097
RightUpLeg  -32.7506 -5.98082 -4.54293
RightLeg  99.0258 2.9814 -13.3583
RightFoot  -15.4966 0.717329 22.4298
RightToes  -1.33073e-015 0 -3.6325e-017
Spine  53.2787 -3.58221 7.00465
Spine1  -7.86886 0.898508 -7.74976
HEad  -42.7333 -4.62671 -2.19845
LeftShoulder1  7.8947 -21.084 -25.8607
LeftArm  1.25042 -71.7142 -44.3813
LeftForeArm  66.8551 -4.16055 -8.8705
LeftHand  -0.244104 0.0205437 5.32207
RightShoulder  4.22017 12.6956 19.6097
RightArm  -30.3722 52.7283 30.1788
RightForeArm  25.7261 41.1678 8.11942
RightHand  -22.5527 36.6379 -57.0033
LeftUpLeg  -49.0977 -0.877245 5.94469
LeftLeg  115.185 -3.48831 6.15499
LeftFoot  -14.8525 -0.0340854 -3.98768
LeftToes  -7.82198e-011 2.46994e-011 -7.94165e-012
136
root  15.2043 22.1275 -2.39644 49.3013 -87.6896 -13.6481
RightUpLeg  -29.9722 -4.10342 -4.36527
RightLeg  97.7223 2.76204 -13.937
RightFoot  -15.5689 0.732347 22.4615
RightToes  -1.33073e-015 0 -3.6325e-017
Spine  54.61 -2.92165 6.92108
Spine1  -7.30261 1.99893 -10.1632
HEad  -43.0491 -5.25578 -1.57365
LeftShoulder1  7.86322 -21.2865 -25.4519
LeftArm  2.91567 -71.2305 -46.5485
LeftForeArm  68.1977 -4.31399 -8.89063
LeftHand  -0.244104 0.0205437 5.32207
RightShoulder  3.79282 12.229 17.5179
RightArm  -36.6863 56.9723 24.2419
RightForeArm  21.7051 35.6914 6.77233
RightHand  -20.5128 34.8885 -54.5458
LeftUpLeg  -52.3049 1.5133 5.76413
LeftLeg  118.221 -3.28477 5.05229
LeftFoot  -15.6585 -0.0686797 -4.35149
LeftToes  -7.82198e-011 2.46994e-011 -7.94165e-012
137
root  14.7939 21.9761 -2.13134 117.525 -87.3214 -83.587
RightUpLeg  -27.2394 -1.92077 -3.85917
RightLeg  96.5826 2.56141 -14.5123
RightFoot  -16.0515 0.81237 22.1655
RightToes  -1.33073e-015 0 -3.6325e-017
Spine  55.5787 -2.52558 7.58585
Spine1  -6.64034 3.29846 -12.9254
HEad  -43.3537 -5.7004 -1.03596
LeftShoulder1  7.87941 -21.3679 -25.4105
LeftArm  4.26509 -70.6998 -47.987
LeftForeArm  69.2127 -4.52758 -8.9936
LeftHand  -0.244104 0.0205437 5.32207
RightShoulder  3.49824 12.1313 15.6321
RightArm  -43.4301 60.2719 17.5515
RightForeArm  18.2217 29.1311 5.33118
RightHand  -18.332 32.8539 -51.8076
LeftUpLeg  -54.3351 4.30239 6.01801
LeftLeg  119.837 -3.42937 4.96519
LeftFoot  -12.2391 0.0365158 -4.36853
LeftToes  -7.82198e-011 2.46994e-011 -7.94165e-012
